<svg width="10" height="10" viewBox="0 0 10 10" fill="none" xmlns="http://www.w3.org/2000/svg" id="card_time">
  <path d="M2.60427 5.6285C2.48898 5.6285 2.39234 5.58948 2.31434 5.51145C2.23635 5.43342 2.19736 5.33842 2.19736 5.22646C2.19736 5.1145 2.23635 5.01951 2.31434 4.94148C2.39234 4.86344 2.48898 4.82443 2.60427 4.82443H4.59308V2.11196C4.59308 2 4.63208 1.905 4.71007 1.82697C4.78806 1.74894 4.88301 1.70992 4.99491 1.70992C5.11021 1.70992 5.20515 1.74894 5.27976 1.82697C5.35775 1.905 5.39674 2 5.39674 2.11196V5.22646C5.39674 5.33842 5.35775 5.43342 5.27976 5.51145C5.20515 5.58948 5.11021 5.6285 4.99491 5.6285H2.60427ZM5 10C4.31502 10 3.67074 9.86938 3.06714 9.60814C2.46355 9.3469 1.93116 8.98558 1.46999 8.52417C1.01221 8.06616 0.652764 7.5352 0.391658 6.9313C0.130553 6.3274 0 5.68278 0 4.99746C0 4.31213 0.130553 3.66921 0.391658 3.0687C0.652764 2.4648 1.01221 1.93215 1.46999 1.47074C1.93116 1.00933 2.46355 0.649703 3.06714 0.391858C3.67074 0.130619 4.31333 0 4.99491 0C5.67989 0 6.32418 0.130619 6.92777 0.391858C7.53137 0.649703 8.06205 1.00933 8.51984 1.47074C8.98101 1.93215 9.34215 2.4648 9.60326 3.0687C9.86775 3.66921 10 4.31213 10 4.99746C10 5.68278 9.86945 6.3274 9.60834 6.9313C9.34724 7.5352 8.9861 8.06616 8.52492 8.52417C8.06375 8.98558 7.53137 9.3469 6.92777 9.60814C6.32757 9.86938 5.68498 10 5 10ZM5 8.94656C5.54934 8.94656 6.06138 8.84478 6.53611 8.64122C7.01424 8.43766 7.43303 8.15606 7.79247 7.79644C8.15531 7.43342 8.43845 7.01272 8.64191 6.53435C8.84537 6.05598 8.9471 5.54368 8.9471 4.99746C8.9471 4.45123 8.84537 3.93893 8.64191 3.46056C8.43845 2.98219 8.15531 2.56319 7.79247 2.20356C7.43303 1.84054 7.01424 1.55725 6.53611 1.35369C6.05799 1.15013 5.54425 1.04835 4.99491 1.04835C4.44897 1.04835 3.93693 1.15013 3.4588 1.35369C2.98406 1.55725 2.56528 1.84054 2.20244 2.20356C1.843 2.56319 1.56155 2.98219 1.35809 3.46056C1.15463 3.93893 1.0529 4.45123 1.0529 4.99746C1.0529 5.54368 1.15463 6.05598 1.35809 6.53435C1.56155 7.01272 1.843 7.43342 2.20244 7.79644C2.56528 8.15606 2.98576 8.43766 3.46389 8.64122C3.94201 8.84478 4.45405 8.94656 5 8.94656Z" fill="#B0B0B0"/>
</svg>
