<svg width="15" height="14" viewBox="0 0 15 14" fill="none" xmlns="http://www.w3.org/2000/svg" id="icon_fix">
  <path d="M7.5036 14C6.54289 14 5.63982 13.8151 4.79439 13.4452C3.95377 13.0801 3.21161 12.5757 2.56794 11.9321C1.92426 11.2884 1.41748 10.5462 1.04761 9.70561C0.682536 8.86018 0.5 7.95711 0.5 6.9964C0.5 6.04049 0.682536 5.13982 1.04761 4.29439C1.41268 3.44896 1.91705 2.70441 2.56073 2.06073C3.20921 1.41705 3.95377 0.912678 4.79439 0.547607C5.63982 0.182536 6.54049 0 7.4964 0C8.45231 0 9.35298 0.182536 10.1984 0.547607C11.0438 0.912678 11.7884 1.41705 12.4321 2.06073C13.0757 2.70441 13.5801 3.44896 13.9452 4.29439C14.3151 5.13982 14.5 6.04049 14.5 6.9964C14.5 7.95711 14.3175 8.86018 13.9524 9.70561C13.5873 10.5462 13.0829 11.2884 12.4393 11.9321C11.7956 12.5757 11.051 13.0801 10.2056 13.4452C9.36018 13.8151 8.45951 14 7.5036 14ZM3.21642 6.9964C3.21642 7.06365 3.23083 7.1333 3.25965 7.20535C3.28847 7.27741 3.34131 7.34946 3.41817 7.42151L6.4228 10.2532C6.51887 10.3349 6.60774 10.3973 6.6894 10.4406C6.77586 10.4838 6.86713 10.5054 6.9632 10.5054C7.1025 10.5054 7.21779 10.4622 7.30906 10.3757C7.40033 10.2844 7.44596 10.1692 7.44596 10.0299V8.53834H10.5443C10.8277 8.53834 11.0486 8.46149 11.2072 8.30777C11.3657 8.15406 11.4449 7.9379 11.4449 7.65929V6.34071C11.4449 6.06691 11.3657 5.85315 11.2072 5.69943C11.0486 5.54092 10.8277 5.46166 10.5443 5.46166H7.44596V3.98456C7.44596 3.84526 7.40033 3.72757 7.30906 3.6315C7.21779 3.53062 7.0977 3.48019 6.94879 3.48019C6.85272 3.48019 6.76625 3.5042 6.6894 3.55224C6.61734 3.59547 6.52848 3.66512 6.4228 3.76119L3.41817 6.56408C3.34131 6.63613 3.28847 6.70818 3.25965 6.78024C3.23083 6.85229 3.21642 6.92434 3.21642 6.9964Z" fill="#CE0000"/>
</svg>
