<svg width="14" height="13" viewBox="0 0 14 13" fill="none" xmlns="http://www.w3.org/2000/svg" id="iteration">
<path d="M2.49305 12.2986C1.79861 12.2986 1.27315 12.125 0.916665 11.7778C0.560183 11.4305 0.381943 10.9097 0.381943 10.2153V2.20832C0.381943 1.51388 0.560183 0.993042 0.916665 0.64582C1.27315 0.293968 1.79861 0.118042 2.49305 0.118042H11.5C12.2037 0.118042 12.7315 0.293968 13.0833 0.64582C13.4352 0.997672 13.6111 1.5185 13.6111 2.20832V10.2153C13.6111 10.9051 13.4352 11.4236 13.0833 11.7708C12.7315 12.1227 12.2037 12.2986 11.5 12.2986H2.49305ZM2.4375 11.125H11.5486C11.831 11.125 12.0486 11.0509 12.2014 10.9028C12.3588 10.7546 12.4375 10.5301 12.4375 10.2292V4.1111C12.4375 3.8148 12.3588 3.59258 12.2014 3.44443C12.0486 3.29628 11.831 3.22221 11.5486 3.22221H2.4375C2.15509 3.22221 1.93981 3.29628 1.79166 3.44443C1.64352 3.59258 1.56944 3.8148 1.56944 4.1111V10.2292C1.56944 10.5301 1.64352 10.7546 1.79166 10.9028C1.93981 11.0509 2.15509 11.125 2.4375 11.125ZM5.72917 5.53471C5.61342 5.53471 5.53009 5.51388 5.47917 5.47221C5.43287 5.43054 5.40972 5.35184 5.40972 5.2361V4.85415C5.40972 4.73841 5.43287 4.65971 5.47917 4.61804C5.53009 4.57175 5.61342 4.5486 5.72917 4.5486H6.11111C6.22685 4.5486 6.30555 4.57175 6.34722 4.61804C6.39352 4.65971 6.41667 4.73841 6.41667 4.85415V5.2361C6.41667 5.35184 6.39352 5.43054 6.34722 5.47221C6.30555 5.51388 6.22685 5.53471 6.11111 5.53471H5.72917ZM7.88889 5.53471C7.77315 5.53471 7.69213 5.51388 7.64583 5.47221C7.60417 5.43054 7.58333 5.35184 7.58333 5.2361V4.85415C7.58333 4.73841 7.60417 4.65971 7.64583 4.61804C7.69213 4.57175 7.77315 4.5486 7.88889 4.5486H8.27778C8.39352 4.5486 8.47453 4.57175 8.52083 4.61804C8.56713 4.65971 8.59028 4.73841 8.59028 4.85415V5.2361C8.59028 5.35184 8.56713 5.43054 8.52083 5.47221C8.47453 5.51388 8.39352 5.53471 8.27778 5.53471H7.88889ZM10.0556 5.53471C9.93518 5.53471 9.85185 5.51388 9.80555 5.47221C9.76389 5.43054 9.74305 5.35184 9.74305 5.2361V4.85415C9.74305 4.73841 9.76389 4.65971 9.80555 4.61804C9.85185 4.57175 9.93518 4.5486 10.0556 4.5486H10.4444C10.5602 4.5486 10.6389 4.57175 10.6806 4.61804C10.7269 4.65971 10.75 4.73841 10.75 4.85415V5.2361C10.75 5.35184 10.7269 5.43054 10.6806 5.47221C10.6389 5.51388 10.5602 5.53471 10.4444 5.53471H10.0556ZM3.5625 7.6736C3.44213 7.6736 3.35879 7.65276 3.3125 7.6111C3.27083 7.5648 3.25 7.48378 3.25 7.36804V6.97915C3.25 6.86341 3.27083 6.78471 3.3125 6.74304C3.35879 6.70138 3.44213 6.68054 3.5625 6.68054H3.94444C4.06481 6.68054 4.14583 6.70138 4.1875 6.74304C4.23379 6.78471 4.25694 6.86341 4.25694 6.97915V7.36804C4.25694 7.48378 4.23379 7.5648 4.1875 7.6111C4.14583 7.65276 4.06481 7.6736 3.94444 7.6736H3.5625ZM5.72917 7.6736C5.61342 7.6736 5.53009 7.65276 5.47917 7.6111C5.43287 7.5648 5.40972 7.48378 5.40972 7.36804V6.97915C5.40972 6.86341 5.43287 6.78471 5.47917 6.74304C5.53009 6.70138 5.61342 6.68054 5.72917 6.68054H6.11111C6.22685 6.68054 6.30555 6.70138 6.34722 6.74304C6.39352 6.78471 6.41667 6.86341 6.41667 6.97915V7.36804C6.41667 7.48378 6.39352 7.5648 6.34722 7.6111C6.30555 7.65276 6.22685 7.6736 6.11111 7.6736H5.72917ZM7.88889 7.6736C7.77315 7.6736 7.69213 7.65276 7.64583 7.6111C7.60417 7.5648 7.58333 7.48378 7.58333 7.36804V6.97915C7.58333 6.86341 7.60417 6.78471 7.64583 6.74304C7.69213 6.70138 7.77315 6.68054 7.88889 6.68054H8.27778C8.39352 6.68054 8.47453 6.70138 8.52083 6.74304C8.56713 6.78471 8.59028 6.86341 8.59028 6.97915V7.36804C8.59028 7.48378 8.56713 7.5648 8.52083 7.6111C8.47453 7.65276 8.39352 7.6736 8.27778 7.6736H7.88889ZM10.0556 7.6736C9.93518 7.6736 9.85185 7.65276 9.80555 7.6111C9.76389 7.5648 9.74305 7.48378 9.74305 7.36804V6.97915C9.74305 6.86341 9.76389 6.78471 9.80555 6.74304C9.85185 6.70138 9.93518 6.68054 10.0556 6.68054H10.4444C10.5602 6.68054 10.6389 6.70138 10.6806 6.74304C10.7269 6.78471 10.75 6.86341 10.75 6.97915V7.36804C10.75 7.48378 10.7269 7.5648 10.6806 7.6111C10.6389 7.65276 10.5602 7.6736 10.4444 7.6736H10.0556ZM3.5625 9.7986C3.44213 9.7986 3.35879 9.77776 3.3125 9.7361C3.27083 9.69443 3.25 9.61573 3.25 9.49999V9.11804C3.25 8.99767 3.27083 8.91665 3.3125 8.87499C3.35879 8.83332 3.44213 8.81249 3.5625 8.81249H3.94444C4.06481 8.81249 4.14583 8.83332 4.1875 8.87499C4.23379 8.91665 4.25694 8.99767 4.25694 9.11804V9.49999C4.25694 9.61573 4.23379 9.69443 4.1875 9.7361C4.14583 9.77776 4.06481 9.7986 3.94444 9.7986H3.5625ZM5.72917 9.7986C5.61342 9.7986 5.53009 9.77776 5.47917 9.7361C5.43287 9.69443 5.40972 9.61573 5.40972 9.49999V9.11804C5.40972 8.99767 5.43287 8.91665 5.47917 8.87499C5.53009 8.83332 5.61342 8.81249 5.72917 8.81249H6.11111C6.22685 8.81249 6.30555 8.83332 6.34722 8.87499C6.39352 8.91665 6.41667 8.99767 6.41667 9.11804V9.49999C6.41667 9.61573 6.39352 9.69443 6.34722 9.7361C6.30555 9.77776 6.22685 9.7986 6.11111 9.7986H5.72917ZM7.88889 9.7986C7.77315 9.7986 7.69213 9.77776 7.64583 9.7361C7.60417 9.69443 7.58333 9.61573 7.58333 9.49999V9.11804C7.58333 8.99767 7.60417 8.91665 7.64583 8.87499C7.69213 8.83332 7.77315 8.81249 7.88889 8.81249H8.27778C8.39352 8.81249 8.47453 8.83332 8.52083 8.87499C8.56713 8.91665 8.59028 8.99767 8.59028 9.11804V9.49999C8.59028 9.61573 8.56713 9.69443 8.52083 9.7361C8.47453 9.77776 8.39352 9.7986 8.27778 9.7986H7.88889Z" fill="currentColor"/>
</svg>
