<svg width="16" height="13" viewBox="0 0 16 13" fill="none" xmlns="http://www.w3.org/2000/svg">
<path d="M5.02778 11.5903V0.826375H6.19445V11.5903H5.02778ZM9.80556 11.5903V0.826375H10.9722V11.5903H9.80556ZM2.34723 12.2986C1.65278 12.2986 1.12732 12.1227 0.770837 11.7708C0.414355 11.4236 0.236115 10.9051 0.236115 10.2153V2.20138C0.236115 1.51156 0.414355 0.993042 0.770837 0.64582C1.12732 0.293968 1.65278 0.118042 2.34723 0.118042H13.6528C14.3565 0.118042 14.8843 0.293968 15.2361 0.64582C15.588 0.993042 15.7639 1.51156 15.7639 2.20138V10.2153C15.7639 10.9051 15.588 11.4236 15.2361 11.7708C14.8843 12.1227 14.3565 12.2986 13.6528 12.2986H2.34723ZM2.39584 11.118H13.6042C13.919 11.118 14.162 11.0347 14.3333 10.868C14.5046 10.7014 14.5903 10.456 14.5903 10.1319V2.28471C14.5903 1.956 14.5046 1.70832 14.3333 1.54165C14.162 1.37499 13.919 1.29165 13.6042 1.29165H2.39584C2.08102 1.29165 1.84028 1.37499 1.67361 1.54165C1.50695 1.70832 1.42361 1.956 1.42361 2.28471V10.1319C1.42361 10.456 1.50695 10.7014 1.67361 10.868C1.84028 11.0347 2.08102 11.118 2.39584 11.118Z" fill="#B0B0B0"/>
</svg>
