<svg width="10" height="15" viewBox="0 0 10 15" fill="none" xmlns="http://www.w3.org/2000/svg" id="mobile_phone">
<path d="M0.894886 12.4432V2.56072C0.894886 2.06167 1.05386 1.65921 1.3718 1.35334C1.69377 1.04747 2.11435 0.894531 2.63352 0.894531H7.38459C7.89974 0.894531 8.31226 1.04747 8.62216 1.35334C8.93608 1.65921 9.09304 2.06167 9.09304 2.56072V12.4432C9.09304 12.9422 8.93608 13.3447 8.62216 13.6506C8.31226 13.9564 7.89974 14.1094 7.38459 14.1094H2.63352C2.11435 14.1094 1.69377 13.9564 1.3718 13.6506C1.05386 13.3447 0.894886 12.9422 0.894886 12.4432ZM2.08416 11.8335H7.9098V3.17045H2.08416V11.8335ZM5.00604 13.4393C5.15495 13.4393 5.28374 13.3849 5.3924 13.2763C5.50509 13.1676 5.56143 13.0348 5.56143 12.8778C5.56143 12.7249 5.50509 12.5941 5.3924 12.4854C5.28374 12.3768 5.15495 12.3224 5.00604 12.3224C4.84908 12.3224 4.71425 12.3768 4.60156 12.4854C4.4929 12.5941 4.43857 12.7249 4.43857 12.8778C4.43857 13.0348 4.4929 13.1676 4.60156 13.2763C4.71425 13.3849 4.84908 13.4393 5.00604 13.4393ZM3.76847 2.0657C3.76847 2.14619 3.79261 2.20857 3.84091 2.25284C3.8892 2.29711 3.95159 2.31925 4.02805 2.31925H5.96591C6.04238 2.31925 6.10476 2.29711 6.15305 2.25284C6.20135 2.20857 6.2255 2.14619 6.2255 2.0657C6.2255 1.98923 6.20135 1.92886 6.15305 1.88459C6.10476 1.83629 6.04238 1.81214 5.96591 1.81214H4.02805C3.95159 1.81214 3.8892 1.83629 3.84091 1.88459C3.79261 1.92886 3.76847 1.98923 3.76847 2.0657Z" fill="#B0B0B0"/>
</svg>
