<svg width="16" height="13" viewBox="0 0 16 13" fill="none" xmlns="http://www.w3.org/2000/svg">
<path d="M2.61111 12.2153C1.91667 12.2153 1.3912 12.0417 1.03472 11.6945C0.678241 11.3472 0.5 10.8264 0.5 10.132V2.12501C0.5 1.44908 0.664352 0.939825 0.993056 0.597232C1.32639 0.25464 1.79167 0.0833435 2.38889 0.0833435H4.25694C4.59028 0.0833435 4.8588 0.120381 5.0625 0.194455C5.2662 0.263899 5.48148 0.391214 5.70833 0.576399L6.09722 0.895844C6.27315 1.03936 6.43982 1.14121 6.59722 1.2014C6.75463 1.26158 6.94676 1.29168 7.17361 1.29168H13.375C14.0741 1.29168 14.6019 1.4676 14.9583 1.81945C15.3148 2.16668 15.4931 2.6852 15.4931 3.37501V10.132C15.4931 10.8218 15.3218 11.3403 14.9792 11.6875C14.6412 12.0394 14.169 12.2153 13.5625 12.2153H2.61111ZM2.65972 11.0417H13.3333C13.6435 11.0417 13.8843 10.9583 14.0556 10.7917C14.2269 10.625 14.3125 10.3796 14.3125 10.0556V3.46529C14.3125 3.13658 14.2269 2.8889 14.0556 2.72223C13.8843 2.55557 13.6435 2.47223 13.3333 2.47223H6.86111C6.52778 2.47223 6.25694 2.4352 6.04861 2.36112C5.84028 2.28705 5.625 2.15973 5.40278 1.97918L5.02083 1.65973C4.84028 1.51158 4.6713 1.40973 4.51389 1.35418C4.36111 1.29399 4.1713 1.2639 3.94444 1.2639H2.63194C2.32639 1.2639 2.09259 1.34492 1.93056 1.50695C1.76852 1.66436 1.6875 1.89816 1.6875 2.20834V10.0486C1.6875 10.3773 1.77083 10.625 1.9375 10.7917C2.10417 10.9583 2.34491 11.0417 2.65972 11.0417ZM1.22917 4.90973V3.84029H14.7639V4.90973H1.22917Z" fill="#B0B0B0"/>
</svg>
