<svg width="12" height="17" viewBox="0 0 12 17" fill="none" xmlns="http://www.w3.org/2000/svg" id="rocket">
<path fill-rule="evenodd"  clip-rule="evenodd" d="M6.29656 0.666802L5.99977 0.5L5.70299 0.666802C3.66803 1.81051 2.61688 3.66804 2.10103 5.55008C1.61127 7.33695 1.59166 9.18431 1.67636 10.5703L0.286828 12.7268C0.145544 12.9461 0.136542 13.2255 0.263409 13.4533L1.6971 16.0291C1.93052 16.4484 2.50515 16.5181 2.83205 16.1667L3.56979 15.3735L3.62165 15.4768L3.73001 15.6926L3.95706 15.7745L5.76164 16.4268L5.96399 16.4999L6.16713 16.4291L8.03617 15.7769L8.26778 15.696L8.37788 15.4768L8.42975 15.3735L9.1675 16.1667C9.49439 16.5181 10.069 16.4484 10.3024 16.0291L11.7361 13.4533C11.863 13.2255 11.854 12.9461 11.7127 12.7268L10.323 10.57C10.3998 9.27409 10.378 7.43459 9.89324 5.632C9.3818 3.73075 8.3379 1.81409 6.29656 0.666802ZM2.86072 14.3574L2.99218 14.2235L2.84023 13.9211C2.69006 13.622 2.81069 13.258 3.10964 13.1078C3.4086 12.9576 3.77268 13.0783 3.92283 13.3772L4.26927 14.0669L4.59591 14.7173L5.9711 15.2143L7.40539 14.7138L7.73028 14.0669L8.07672 13.3772C8.22687 13.0783 8.59095 12.9576 8.8899 13.1078C9.18885 13.258 9.30948 13.622 9.15932 13.9211L9.00737 14.2235L9.13883 14.3574L9.14458 14.3633L9.15018 14.3693L9.58158 14.8331L10.5304 13.1286L9.19823 11.0611C9.12937 10.9542 9.09193 10.8231 9.10156 10.6848C9.18773 9.44753 9.18421 7.66036 8.72327 5.94667C8.29157 4.34167 7.47397 2.85106 5.9993 1.90135C4.51906 2.84896 3.70072 4.29678 3.26943 5.87033C2.80784 7.55441 2.80357 9.33907 2.89796 10.6844C2.90757 10.8214 2.87101 10.9529 2.80131 11.0611L1.46917 13.1286L2.41793 14.8331L2.84936 14.3693L2.85496 14.3633L2.86072 14.3574ZM4.99035 8.49546C4.99035 7.93789 5.44235 7.48588 5.99994 7.48588C6.55751 7.48588 7.00952 7.93789 7.00952 8.49546C7.00952 9.05303 6.55751 9.50504 5.99994 9.50504C5.44235 9.50504 4.99035 9.05303 4.99035 8.49546ZM5.99994 6.4763C4.88478 6.4763 3.98077 7.38031 3.98077 8.49546C3.98077 9.61062 4.88478 10.5146 5.99994 10.5146C7.11509 10.5146 8.0191 9.61062 8.0191 8.49546C8.0191 7.38031 7.11509 6.4763 5.99994 6.4763Z" fill="currentColor"/>
</svg>
