<svg width="14" height="16" viewBox="0 0 14 16" fill="none" xmlns="http://www.w3.org/2000/svg">
<path d="M2.19445 15.5556C1.49538 15.5556 0.967603 15.3796 0.611121 15.0278C0.259269 14.6759 0.0833435 14.1574 0.0833435 13.4722V6.72223C0.0833435 6.02779 0.259269 5.50695 0.611121 5.15973C0.967603 4.80788 1.49538 4.63195 2.19445 4.63195H11.7986C12.4977 4.63195 13.0232 4.80788 13.375 5.15973C13.7315 5.51158 13.9097 6.03242 13.9097 6.72223V13.4722C13.9097 14.1574 13.7315 14.6759 13.375 15.0278C13.0232 15.3796 12.4977 15.5556 11.7986 15.5556H2.19445ZM2.24307 14.375H11.7431C12.0579 14.375 12.3009 14.2917 12.4722 14.125C12.6435 13.963 12.7292 13.7153 12.7292 13.382V6.80557C12.7292 6.47686 12.6435 6.22918 12.4722 6.06251C12.3009 5.89584 12.0579 5.81251 11.7431 5.81251H2.24307C1.92825 5.81251 1.68751 5.89584 1.52084 6.06251C1.35418 6.22918 1.27084 6.47686 1.27084 6.80557V13.382C1.27084 13.7153 1.35418 13.963 1.52084 14.125C1.68751 14.2917 1.92825 14.375 2.24307 14.375ZM1.50695 3.56251C1.54862 3.25695 1.65047 3.02316 1.81251 2.86112C1.97918 2.69445 2.23381 2.61112 2.5764 2.61112H11.4236C11.7616 2.61112 12.0116 2.69445 12.1736 2.86112C12.3403 3.02316 12.4491 3.25695 12.5 3.56251H1.50695ZM2.84723 1.70834C2.87038 1.42131 2.96297 1.20371 3.12501 1.05557C3.29168 0.907418 3.5301 0.833344 3.84029 0.833344H10.1597C10.4699 0.833344 10.7083 0.907418 10.875 1.05557C11.0417 1.20371 11.1343 1.42131 11.1528 1.70834H2.84723ZM2.95834 14.9028C3.05094 14.4954 3.2176 14.1204 3.45834 13.7778C3.69908 13.4352 3.9977 13.1389 4.35418 12.8889C4.71066 12.6343 5.11344 12.4375 5.56251 12.2986C6.01621 12.1597 6.49538 12.0903 7.00001 12.0903C7.50927 12.0903 7.98612 12.1597 8.43057 12.2986C8.87964 12.4375 9.28473 12.6343 9.64584 12.8889C10.007 13.1389 10.3079 13.4352 10.5486 13.7778C10.7894 14.1204 10.9537 14.4954 11.0417 14.9028H2.95834ZM7.00001 11.1181C6.62038 11.1134 6.27779 11.0139 5.97223 10.8195C5.66668 10.625 5.42362 10.3634 5.24307 10.0347C5.06251 9.7014 4.96992 9.32177 4.96529 8.89584C4.96529 8.50233 5.05557 8.14121 5.23612 7.81251C5.41668 7.47918 5.65973 7.21297 5.96529 7.0139C6.27547 6.81483 6.62038 6.71529 7.00001 6.71529C7.37964 6.71529 7.72223 6.81483 8.02779 7.0139C8.33797 7.21297 8.58334 7.47918 8.7639 7.81251C8.94446 8.14121 9.03473 8.50233 9.03473 8.89584C9.03473 9.32177 8.94446 9.70371 8.7639 10.0417C8.58334 10.375 8.33797 10.6389 8.02779 10.8333C7.72223 11.0278 7.37964 11.1227 7.00001 11.1181Z" fill="#B0B0B0"/>
</svg>
