<svg width="14" height="14" viewBox="0 0 14 14" fill="none" xmlns="http://www.w3.org/2000/svg">
<path d="M7.0036 14C6.04289 14 5.13982 13.8151 4.29439 13.4452C3.45377 13.0801 2.71161 12.5757 2.06794 11.9321C1.42426 11.2884 0.917482 10.5462 0.547607 9.70561C0.182536 8.86018 0 7.95711 0 6.9964C0 6.04049 0.182536 5.13982 0.547607 4.29439C0.912678 3.44896 1.41705 2.70441 2.06073 2.06073C2.70921 1.41705 3.45377 0.912678 4.29439 0.547607C5.13982 0.182536 6.04049 0 6.9964 0C7.95231 0 8.85298 0.182536 9.6984 0.547607C10.5438 0.912678 11.2884 1.41705 11.9321 2.06073C12.5757 2.70441 13.0801 3.44896 13.4452 4.29439C13.8151 5.13982 14 6.04049 14 6.9964C14 7.95711 13.8175 8.86018 13.4524 9.70561C13.0873 10.5462 12.5829 11.2884 11.9393 11.9321C11.2956 12.5757 10.551 13.0801 9.70561 13.4452C8.86018 13.8151 7.95951 14 7.0036 14ZM6.24704 10.3469C6.49202 10.3469 6.69137 10.2292 6.84508 9.99382L10.0371 4.9861C10.0851 4.91405 10.1259 4.83959 10.1595 4.76274C10.198 4.68108 10.2172 4.60182 10.2172 4.52496C10.2172 4.35684 10.1523 4.22234 10.0226 4.12146C9.89775 4.01578 9.75605 3.96294 9.59753 3.96294C9.39098 3.96294 9.21805 4.07583 9.07874 4.3016L6.21822 8.89141L4.86361 7.16212C4.78195 7.05164 4.69789 6.97478 4.61143 6.93155C4.52977 6.88832 4.4385 6.8667 4.33762 6.8667C4.1695 6.8667 4.02779 6.92675 3.91251 7.04683C3.80202 7.16212 3.74678 7.30383 3.74678 7.47195C3.74678 7.63047 3.80683 7.78418 3.92692 7.93309L5.61297 10.001C5.70424 10.1163 5.80031 10.2028 5.90118 10.2604C6.00206 10.3181 6.11734 10.3469 6.24704 10.3469Z" fill="#1BBA69"/>
</svg>
