<svg width="15" height="14" viewBox="0 0 15 14" fill="none" xmlns="http://www.w3.org/2000/svg">
<path d="M7.5036 14C6.54289 14 5.63982 13.8151 4.79439 13.4452C3.95377 13.0801 3.21161 12.5757 2.56794 11.9321C1.92426 11.2884 1.41748 10.5462 1.04761 9.70561C0.682536 8.86018 0.5 7.95711 0.5 6.9964C0.5 6.04049 0.682536 5.13982 1.04761 4.29439C1.41268 3.44896 1.91705 2.70441 2.56073 2.06073C3.20921 1.41705 3.95377 0.912678 4.79439 0.547607C5.63982 0.182536 6.54049 0 7.4964 0C8.45231 0 9.35298 0.182536 10.1984 0.547607C11.0438 0.912678 11.7884 1.41705 12.4321 2.06073C13.0757 2.70441 13.5801 3.44896 13.9452 4.29439C14.3151 5.13982 14.5 6.04049 14.5 6.9964C14.5 7.95711 14.3175 8.86018 13.9524 9.70561C13.5873 10.5462 13.0829 11.2884 12.4393 11.9321C11.7956 12.5757 11.051 13.0801 10.2056 13.4452C9.36018 13.8151 8.45951 14 7.5036 14ZM11.7692 6.9964C11.7692 6.92434 11.7524 6.84989 11.7187 6.77303C11.6899 6.69617 11.6395 6.62172 11.5674 6.54967L8.47633 3.66752C8.36584 3.56665 8.26977 3.4946 8.18811 3.45136C8.11125 3.40813 8.02479 3.38652 7.92872 3.38652C7.78461 3.38652 7.66452 3.43695 7.56845 3.53783C7.47238 3.6387 7.42434 3.75639 7.42434 3.89089V5.41122H4.23237C3.93935 5.41122 3.71119 5.49288 3.54786 5.6562C3.38454 5.81472 3.30288 6.03809 3.30288 6.3263V7.68091C3.30288 7.96912 3.38454 8.19249 3.54786 8.351C3.71119 8.50472 3.93935 8.58157 4.23237 8.58157H7.42434V10.1163C7.42434 10.2604 7.46998 10.3805 7.56125 10.4766C7.65732 10.5679 7.7726 10.6135 7.9071 10.6135C8.00798 10.6135 8.10165 10.5919 8.18811 10.5486C8.27938 10.5006 8.37545 10.4334 8.47633 10.3469L11.5674 7.43592C11.6395 7.36387 11.6899 7.28941 11.7187 7.21256C11.7524 7.1357 11.7692 7.06365 11.7692 6.9964Z" fill="#1BBA69"/>
</svg>
